<?xml version="1.0" standalone="no"?>
<!DOCTYPE svg PUBLIC "-//W3C//DTD SVG 20010904//EN"
 "http://www.w3.org/TR/2001/REC-SVG-20010904/DTD/svg10.dtd">
<svg version="1.0" xmlns="http://www.w3.org/2000/svg"
 width="1280.000000pt" height="640.000000pt" viewBox="0 0 1280.000000 640.000000"
 preserveAspectRatio="xMidYMid meet">

<g transform="translate(0.000000,640.000000) scale(0.100000,-0.100000)"
fill="#000000" stroke="none">
<path d="M8220 5520 l55 -7 -48 -1 c-31 -1 -55 -9 -68 -21 -45 -41 -263 -94
-439 -105 -115 -8 -119 -9 -65 -17 31 -5 13 -5 -50 -2 -55 3 -161 9 -235 13
l-135 7 115 3 115 3 -110 7 c-134 10 -240 30 -365 73 -137 46 -236 45 -800 -9
-456 -44 -819 -123 -1058 -230 -31 -14 -72 -33 -91 -41 -18 -8 -31 -16 -28
-19 3 -3 24 4 47 16 118 60 447 114 995 162 189 16 1147 16 1422 0 239 -15
325 -27 428 -59 63 -20 167 -64 183 -78 4 -3 -498 -1119 -508 -1129 -6 -6
-112 -3 -277 8 -147 9 -335 19 -418 21 -122 4 -166 9 -235 30 -98 28 -131 32
-50 5 54 -19 51 -19 -415 -13 l-470 6 -102 65 c-102 64 -130 87 -73 57 22 -11
65 -15 172 -16 79 0 262 -11 408 -23 146 -12 267 -21 269 -19 12 9 -21 16
-165 33 -87 11 -163 20 -169 20 -7 0 -17 11 -23 25 -14 30 -47 33 -62 5 -6
-11 -17 -20 -25 -20 -18 0 -19 12 -3 28 9 9 9 12 1 12 -7 0 -15 -10 -18 -21
-6 -19 -12 -21 -52 -15 -25 3 -72 6 -104 6 -47 0 -59 3 -59 16 0 13 -8 15 -52
9 -29 -3 -370 -8 -757 -11 l-704 -5 100 108 c391 419 654 691 683 706 19 10
27 16 17 12 -57 -16 -67 -17 -67 -2 0 8 14 20 30 27 17 7 33 17 36 22 3 5 -12
0 -35 -11 -27 -14 -41 -28 -41 -41 0 -20 -99 -127 -577 -626 l-192 -201 -63
-6 c-35 -4 -101 -11 -148 -17 -47 -5 -164 -19 -260 -30 -96 -11 -213 -24 -260
-30 -47 -6 -125 -15 -175 -20 -288 -31 -345 -41 -442 -74 -98 -33 -220 -97
-358 -187 -66 -42 -131 -80 -145 -83 -14 -3 -86 -10 -160 -16 -74 -5 -174 -14
-222 -20 -95 -11 -176 -20 -393 -44 -306 -35 -538 -66 -545 -73 -3 -3 15 -3
40 0 221 29 235 14 30 -33 -165 -38 -290 -50 -290 -28 0 11 26 19 98 32 110
20 126 24 97 25 -11 0 -86 -10 -167 -23 -125 -21 -158 -30 -211 -60 -130 -72
-264 -187 -293 -252 -28 -62 -24 -222 10 -349 35 -133 71 -187 170 -251 56
-36 78 -57 85 -79 9 -33 -7 -55 -41 -55 -21 0 -50 -53 -46 -83 2 -11 19 -30
38 -41 34 -21 53 -21 775 -27 1198 -11 2311 -10 2709 2 367 10 374 11 636 54
355 58 394 62 461 40 107 -35 149 -77 149 -148 0 -58 -55 -79 -310 -121 -472
-77 -502 -79 -1092 -70 -291 4 -528 4 -528 0 0 -7 189 -348 228 -411 14 -22
40 -54 58 -71 28 -26 34 -39 34 -72 0 -40 0 -40 -43 -43 -92 -8 -115 -1 -146
44 -71 104 -197 378 -234 512 l-14 50 -209 2 c-443 4 -1483 24 -1773 34 -167
5 -306 8 -309 5 -2 -3 20 -32 50 -65 58 -62 199 -244 219 -283 12 -22 11 -23
-8 -5 -20 17 -21 17 -50 -16 -26 -30 -31 -32 -41 -18 -7 9 -5 -2 3 -24 28 -71
34 -114 19 -129 -11 -12 -6 -16 34 -26 26 -6 71 -10 100 -8 l53 3 38 -102 c81
-211 156 -321 273 -400 41 -27 108 -60 149 -74 69 -22 87 -24 289 -23 271 0
415 15 490 51 70 33 190 153 253 251 26 40 47 75 47 77 0 3 -23 5 -51 5 -27 0
-48 3 -46 7 3 5 -18 7 -46 5 -29 -2 -77 1 -107 6 -45 8 -26 10 115 11 183 1
248 -5 242 -23 -2 -6 -26 -14 -53 -17 l-49 -6 56 -1 c48 -2 59 1 71 20 19 28
33 18 47 -34 23 -80 60 -108 145 -108 47 0 65 -5 82 -21 17 -16 34 -21 76 -20
29 0 170 3 313 6 260 6 505 -4 580 -24 39 -10 39 -10 5 -7 -19 2 -45 7 -57 11
-42 13 125 -151 215 -213 92 -63 146 -92 252 -138 60 -25 79 -28 240 -34 105
-4 -17 -6 -305 -5 -264 2 -442 1 -395 -1 47 -2 348 -8 670 -13 628 -10 584
-12 1010 43 107 13 231 27 275 31 44 3 96 10 115 15 19 5 73 14 120 20 47 5
189 24 315 40 127 16 327 42 445 57 118 15 207 29 197 31 -10 2 -92 -6 -184
-18 -91 -11 -167 -19 -170 -17 -2 3 16 7 39 11 37 5 183 69 198 86 3 3 15 11
28 18 12 6 32 18 45 25 12 6 24 15 27 18 3 3 16 12 29 19 14 7 30 17 35 21 6
5 47 37 91 71 89 69 207 184 245 238 13 19 32 44 42 54 10 11 18 26 18 33 0 7
3 13 8 13 4 0 12 12 19 26 l12 25 -87 -5 c-104 -5 -88 -3 178 30 113 14 225
30 250 35 25 5 126 20 225 34 319 46 420 64 467 85 58 25 299 63 353 56 22 -4
51 -7 65 -9 16 -1 26 -10 30 -27 5 -20 11 -24 31 -21 13 2 53 4 89 5 58 1 66
3 77 26 7 14 13 32 13 40 0 25 132 68 265 85 66 8 201 29 300 45 273 44 244
48 275 -35 57 -154 138 -276 230 -349 72 -58 134 -76 299 -87 80 -5 205 -14
276 -19 97 -7 146 -6 191 3 255 53 439 388 470 859 3 54 10 98 15 98 5 0 94
36 197 80 187 79 187 79 231 137 24 32 88 110 141 173 122 145 219 275 225
303 3 12 12 103 21 202 8 98 18 183 20 187 3 4 14 8 25 8 24 0 24 4 -6 207
-35 243 -77 374 -130 409 -33 21 -127 28 -659 44 -191 5 -411 13 -490 16
l-144 7 -93 69 c-280 207 -565 382 -884 543 -340 172 -569 264 -888 359 -182
54 -393 105 -517 126 -229 38 -405 58 -550 63 -69 3 -93 1 -60 -3z m-1422 -27
c-21 -2 -55 -2 -75 0 -21 2 -4 4 37 4 41 0 58 -2 38 -4z m375 -100 c-35 -2
-91 -2 -125 0 -35 2 -7 3 62 3 69 0 97 -1 63 -3z m585 -40 c-10 -2 -26 -2 -35
0 -10 3 -2 5 17 5 19 0 27 -2 18 -5z m70 -10 c-10 -2 -26 -2 -35 0 -10 3 -2 5
17 5 19 0 27 -2 18 -5z m1412 -67 c250 -28 405 -67 541 -138 147 -76 175 -119
198 -313 13 -107 31 -412 31 -542 l0 -93 43 0 c83 0 114 11 179 63 34 28 52
38 39 24 -28 -30 -36 -71 -14 -63 25 10 3 -14 -29 -30 -30 -16 -50 -18 -388
-34 -271 -14 -1016 -40 -1080 -39 -68 2 204 21 660 45 190 11 324 20 299 22
-25 2 -282 -9 -572 -22 -826 -40 -759 -35 -779 -60 -10 -11 -18 -28 -18 -36 0
-10 3 -11 8 -4 24 38 945 40 1027 2 35 -16 32 -23 -17 -43 -121 -48 -823 -156
-1082 -167 -37 -1 -36 -2 14 -7 57 -7 15 -10 -337 -28 l-121 -6 -25 49 c-14
27 -31 68 -38 92 -7 24 -21 49 -31 56 -16 12 -11 14 39 15 32 0 103 5 158 11
55 5 134 10 175 11 l75 2 -55 8 c-40 5 -24 7 60 5 63 -2 102 0 85 4 -26 7 -27
8 -6 9 22 1 50 25 51 44 0 12 -28 8 -43 -7 -11 -11 -69 -15 -289 -18 l-275 -3
29 65 c17 36 122 272 235 525 182 409 210 465 250 507 59 60 144 98 242 109
111 11 604 2 761 -15z m1275 -601 c9 -44 18 -89 21 -100 2 -11 6 -32 10 -47 3
-15 5 -30 5 -33 0 -2 4 -18 9 -35 l9 -30 -64 0 -64 0 -9 38 c-5 20 -15 71 -22
112 -7 41 -17 92 -22 114 -5 21 -7 40 -4 43 4 4 106 21 113 19 0 -1 9 -37 18
-81z m154 -113 c14 -59 26 -113 29 -119 3 -9 27 -13 75 -13 118 0 68 -10 -99
-20 -144 -9 -232 -16 -436 -36 -48 -5 -68 -4 -68 5 0 7 23 11 65 11 36 0 65 4
65 9 0 5 63 12 140 16 l139 7 -5 32 c-3 17 -10 45 -14 61 -9 30 -24 112 -25
130 0 11 38 23 80 24 l30 1 24 -108z m-3799 -473 c0 -5 39 -9 88 -10 l87 -1
-95 -22 c-96 -23 -122 -22 -134 9 -7 20 -36 19 -36 -1 0 -15 -10 -16 -82 -11
-46 4 -127 7 -181 7 -64 0 -96 4 -92 10 4 6 12 7 18 4 8 -5 9 -3 2 4 -5 6 -32
13 -60 15 -32 2 -20 4 35 5 47 0 146 -3 220 -7 100 -6 141 -5 159 4 25 12 71
9 71 -6z m1738 14 c-21 -2 -55 -2 -75 0 -21 2 -4 4 37 4 41 0 58 -2 38 -4z
m600 0 c-10 -2 -26 -2 -35 0 -10 3 -2 5 17 5 19 0 27 -2 18 -5z m-780 -10
c-10 -2 -26 -2 -35 0 -10 3 -2 5 17 5 19 0 27 -2 18 -5z m640 0 c-21 -2 -55
-2 -75 0 -21 2 -4 4 37 4 41 0 58 -2 38 -4z m-6075 -10 c-7 -2 -19 -2 -25 0
-7 3 -2 5 12 5 14 0 19 -2 13 -5z m3380 -10 c-7 -2 -21 -2 -30 0 -10 3 -4 5
12 5 17 0 24 -2 18 -5z m1180 -10 c131 -6 137 -7 137 -27 0 -15 10 -25 29 -33
25 -9 33 -21 50 -80 24 -80 25 -87 11 -78 -5 3 -85 -6 -176 -20 -92 -14 -197
-29 -233 -33 l-66 -7 50 -5 c36 -4 11 -7 -90 -13 -342 -19 -747 -48 -1220 -87
-60 -5 -144 -11 -185 -14 l-75 -5 90 12 c56 7 83 15 73 19 -10 4 -18 11 -18
16 0 18 95 53 237 86 81 20 165 41 186 46 20 6 43 8 49 4 6 -4 8 -3 5 3 -4 7
15 13 51 16 31 4 127 14 212 22 85 9 198 22 250 30 89 12 92 13 40 15 -30 1
-47 4 -37 7 11 3 16 10 13 20 -3 8 -6 26 -6 39 0 19 -5 24 -27 25 -16 0 19 12
76 25 57 13 107 27 110 30 6 6 152 2 464 -13z m464 11 c-3 -3 -12 -4 -19 -1
-8 3 -5 6 6 6 11 1 17 -2 13 -5z m-229 -11 c-10 -2 -26 -2 -35 0 -10 3 -2 5
17 5 19 0 27 -2 18 -5z m-3285 -9 c20 -4 37 -10 37 -15 0 -5 -17 -16 -37 -25
-45 -18 -270 -73 -310 -75 -21 -2 -19 -3 12 -8 34 -5 24 -8 -66 -19 -58 -8
-123 -11 -145 -8 -27 4 -31 3 -14 -2 20 -7 13 -10 -37 -15 -35 -4 -84 -5 -110
-2 -35 3 -40 2 -18 -3 18 -5 -47 -9 -157 -10 -190 -2 -242 4 -216 25 90 71
875 187 1061 157z m1570 -1 c-7 -2 -19 -2 -25 0 -7 3 -2 5 12 5 14 0 19 -2 13
-5z m492 -17 l210 -11 -140 -8 c-77 -3 -176 -9 -220 -11 l-80 -5 95 12 c106
13 107 13 -145 26 -158 8 -158 8 -45 9 63 0 210 -5 325 -12z m3608 -27 c21
-26 22 -54 1 -71 -8 -7 -23 -21 -32 -30 -20 -22 -45 -23 -62 -4 -18 22 -8 59
20 73 21 11 0 13 -137 13 -163 0 -181 4 -169 36 5 14 29 15 184 10 164 -5 178
-7 195 -27z m-3460 -6 c-7 -2 -19 -2 -25 0 -7 3 -2 5 12 5 14 0 19 -2 13 -5z
m-2410 -70 c-7 -2 -21 -2 -30 0 -10 3 -4 5 12 5 17 0 24 -2 18 -5z m-1553 -40
l-31 -38 33 -7 c23 -4 12 -6 -34 -5 -38 0 -71 -3 -75 -6 -3 -4 -20 -6 -37 -6
-27 2 -28 2 -7 6 14 3 39 16 56 29 18 13 34 21 38 18 3 -3 23 6 44 20 20 14
39 26 41 26 2 0 -10 -17 -28 -37z m1407 -9 c-3 -3 -12 -4 -19 -1 -8 3 -5 6 6
6 11 1 17 -2 13 -5z m-67 -14 l-25 -8 25 -2 c14 -1 30 -2 35 -1 6 1 0 -7 -12
-18 -33 -28 -142 -45 -290 -46 -128 0 -160 7 -145 32 4 6 82 20 177 31 183 21
279 26 235 12z m-367 -7 c-7 -2 -21 -2 -30 0 -10 3 -4 5 12 5 17 0 24 -2 18
-5z m-70 -10 c-7 -2 -19 -2 -25 0 -7 3 -2 5 12 5 14 0 19 -2 13 -5z m5014 1
c-3 -3 -12 -4 -19 -1 -8 3 -5 6 6 6 11 1 17 -2 13 -5z m-2354 -11 c-7 -2 -19
-2 -25 0 -7 3 -2 5 12 5 14 0 19 -2 13 -5z m2155 0 c-15 -2 -42 -2 -60 0 -18
2 -6 4 27 4 33 0 48 -2 33 -4z m-2231 -9 c-3 -3 -12 -4 -19 -1 -8 3 -5 6 6 6
11 1 17 -2 13 -5z m-3572 -14 c-3 -5 -11 -10 -16 -10 -6 0 -7 5 -4 10 3 6 11
10 16 10 6 0 7 -4 4 -10z m305 -186 l195 -8 -205 -10 c-380 -18 -1047 -7 -935
15 22 5 52 12 67 16 29 9 555 1 878 -13z m2773 19 c-7 -2 -19 -2 -25 0 -7 3
-2 5 12 5 14 0 19 -2 13 -5z m-3770 -40 c-7 -2 -21 -2 -30 0 -10 3 -4 5 12 5
17 0 24 -2 18 -5z m-66 -9 c-3 -3 -12 -4 -19 -1 -8 3 -5 6 6 6 11 1 17 -2 13
-5z m1943 -36 c-70 -40 -73 -43 -47 -48 l28 -5 -37 -35 c-25 -24 -33 -28 -25
-13 10 20 9 21 -22 13 -43 -12 -312 -40 -384 -40 -32 0 -75 -5 -97 -11 -37
-10 -59 -8 -193 17 -55 10 -1 45 105 67 54 11 55 12 27 19 -16 4 44 5 135 2
l165 -5 84 35 c88 38 95 40 88 29 -7 -10 181 -3 207 7 50 20 35 7 -34 -32z
m-2012 25 c-10 -2 -26 -2 -35 0 -10 3 -2 5 17 5 19 0 27 -2 18 -5z m8827 -12
c9 -29 -1 -43 -67 -91 l-61 -44 -161 -7 c-89 -4 -184 -8 -213 -8 l-51 -1 30
73 c17 39 35 78 40 85 8 9 69 12 244 12 218 0 233 -1 239 -19z m-9854 -27
c-57 -19 -111 -33 -120 -32 -21 5 167 68 199 67 14 -1 -22 -16 -79 -35z m946
30 c-3 -3 -12 -4 -19 -1 -8 3 -5 6 6 6 11 1 17 -2 13 -5z m8384 -51 c-10 -27
-25 -60 -32 -75 l-12 -28 -111 0 c-456 0 -1643 -54 -2108 -95 l-57 -5 21 53
c12 28 25 56 29 61 14 16 880 77 1509 106 135 7 313 15 395 19 83 5 203 9 267
10 l118 1 -19 -47z m-5787 -54 c78 -14 136 -38 136 -55 0 -8 -5 -14 -11 -14
-5 0 -8 -4 -5 -8 3 -5 -18 -3 -47 5 -34 9 -116 13 -247 13 -233 0 -299 6 -296
27 3 22 27 32 93 43 70 11 295 5 377 -11z m3492 -61 c-40 -94 -20 -85 -190
-92 -177 -8 -591 -32 -791 -46 -176 -12 -205 -11 -90 5 61 8 77 13 50 14 -28
1 -35 4 -25 10 34 19 309 69 397 72 l38 1 -30 9 c-22 6 -10 7 40 5 42 -2 62 0
50 5 l-20 8 20 0 c11 1 108 8 215 16 251 19 278 21 318 23 l32 2 -14 -32z
m-4701 -7 c146 -5 160 -8 163 -25 4 -18 -2 -19 -159 -13 -90 4 -395 10 -677
14 l-514 6 4 -96 c1 -54 4 -97 6 -97 2 0 15 9 29 20 22 17 39 20 132 18 82 -1
94 -3 56 -8 -44 -5 -46 -7 -20 -11 18 -4 -1 -7 -50 -9 l-80 -4 110 -5 110 -6
19 -38 c10 -21 20 -55 23 -76 5 -36 8 -40 60 -57 l54 -19 -6 -35 c-4 -19 -11
-39 -16 -44 -12 -13 -168 -35 -256 -35 l-73 -1 0 -64 0 -65 53 5 c60 5 555 21
892 29 323 8 352 11 381 42 20 22 24 36 24 92 0 87 -25 226 -57 319 -19 54
-22 77 -14 85 17 17 26 1 55 -103 31 -111 56 -248 56 -304 0 -46 -31 -116 -59
-133 -21 -13 -201 -24 -681 -43 -151 -6 -358 -15 -460 -21 -182 -9 -544 -2
-1021 21 -293 14 -350 33 -394 131 -21 45 -25 43 -48 -22 -32 -85 -108 -133
-182 -115 -44 11 -120 91 -149 155 -74 166 -48 390 55 459 68 47 170 15 222
-68 l22 -35 5 34 5 34 85 1 85 1 3 -27 c2 -16 5 -28 7 -28 2 0 29 7 61 15 48
12 60 13 83 0 25 -12 28 -20 30 -72 1 -32 4 -67 7 -78 4 -17 3 -18 -6 -5 -10
13 -11 12 -6 -3 3 -10 6 -24 6 -31 0 -18 60 -19 109 -1 30 10 82 15 169 15
133 0 156 -11 44 -21 -57 -5 -50 -6 49 -7 l117 -2 -9 38 c-14 59 -11 66 33 95
40 26 48 27 170 27 l128 0 0 75 0 75 -92 0 c-157 0 -662 -20 -888 -35 -118 -8
-216 -12 -219 -9 -15 15 38 24 239 38 226 16 630 34 880 40 182 4 1096 -5
1295 -13z m1275 -22 c145 -65 216 -262 160 -440 -26 -83 -64 -137 -123 -173
-87 -53 -170 -52 -259 5 -130 84 -177 305 -98 465 68 139 199 198 320 143z
m2673 -6 c-7 -2 -19 -2 -25 0 -7 3 -2 5 12 5 14 0 19 -2 13 -5z m-3886 -78
c51 -22 71 -42 66 -68 -2 -12 5 -92 16 -177 20 -150 20 -156 2 -180 -25 -35
-58 -50 -114 -50 -57 0 -111 21 -151 58 -33 31 -65 96 -66 131 0 22 -3 23 -37
18 -21 -4 -156 -7 -301 -8 -226 -1 -266 1 -287 15 -14 9 -25 25 -25 36 0 20 5
20 323 14 l324 -7 5 41 c11 79 71 144 165 178 21 7 39 13 41 14 1 0 19 -7 39
-15z m-2830 -119 c-7 -38 -18 -71 -24 -73 -12 -4 -25 38 -19 59 2 7 7 25 10
40 6 28 38 67 43 52 2 -5 -3 -40 -10 -78z m10973 49 c94 -48 193 -187 239
-339 123 -400 8 -885 -240 -1021 -152 -82 -326 7 -429 220 -48 99 -75 205 -91
353 -28 258 46 553 176 700 49 55 115 99 168 113 48 12 124 1 177 -26z m-5144
-79 c29 -22 9 -31 -64 -31 -54 0 -67 3 -70 17 -5 28 99 39 134 14z m4095 -380
c-13 -16 -140 -51 -217 -60 -50 -6 -52 -5 -58 20 -4 14 -5 28 -3 30 4 4 181
21 246 23 36 1 42 -1 32 -13z m-287 -32 c4 -15 6 -28 4 -30 -5 -4 -573 -72
-1718 -203 -489 -56 -494 -57 -488 -40 3 10 56 20 189 36 279 34 1061 137
1544 202 237 33 437 59 446 60 10 1 19 -10 23 -25z m-6891 9 c-7 -2 -19 -2
-25 0 -7 3 -2 5 12 5 14 0 19 -2 13 -5z m3050 -8 c202 -52 354 -278 402 -595
61 -395 -91 -805 -339 -921 -56 -26 -79 -31 -141 -31 -62 0 -85 5 -137 29 -81
39 -146 97 -203 183 -265 398 -177 1087 166 1298 38 23 127 50 169 51 14 1 52
-6 83 -14z m-3450 -12 c-13 -2 -35 -2 -50 0 -16 2 -5 4 22 4 28 0 40 -2 28 -4z
m-2100 -67 c4 -10 -4 -15 -29 -18 -28 -3 -34 -1 -34 14 0 22 55 26 63 4z
m1010 -33 c-7 -2 -21 -2 -30 0 -10 3 -4 5 12 5 17 0 24 -2 18 -5z m-408 -13
c-3 -5 -35 -10 -71 -10 -41 0 -63 4 -59 10 3 6 35 10 71 10 41 0 63 -4 59 -10z
m1250 0 c4 -6 -5 -10 -20 -10 -15 0 -24 4 -20 10 3 6 12 10 20 10 8 0 17 -4
20 -10z m655 -6 c35 -8 51 -31 29 -45 -16 -10 -113 -12 -147 -3 -14 4 -22 13
-20 22 5 26 73 39 138 26z m4670 -143 c0 -5 -12 -12 -27 -15 -67 -13 -363 -47
-380 -44 -18 4 330 66 380 67 15 1 27 -3 27 -8z m-437 -68 c-7 -2 -19 -2 -25
0 -7 3 -2 5 12 5 14 0 19 -2 13 -5z m-5788 -180 c-11 -3 -26 -10 -32 -15 -9
-7 -13 -7 -13 0 0 13 18 21 45 20 l20 0 -20 -5z m878 -72 c14 -6 32 -23 40
-38 17 -33 92 -471 83 -481 -8 -7 -331 -5 -578 4 -214 8 -206 2 -242 194 -33
175 -50 306 -42 327 6 15 38 16 360 10 194 -4 365 -11 379 -16z m1801 -45 c19
-8 37 -19 40 -25 5 -8 0 -8 -18 0 -29 14 -95 4 -102 -16 -3 -7 -9 -35 -13 -61
-7 -46 -9 -48 -19 -24 -9 22 -11 23 -11 5 -1 -12 7 -37 18 -58 10 -20 14 -34
9 -31 -19 12 -48 89 -48 127 0 29 7 46 29 68 33 32 64 36 115 15z m102 -41
c43 -46 65 -104 63 -167 l-1 -33 -10 28 c-12 34 -28 35 -28 1 0 -32 -50 -84
-81 -84 -28 0 -103 35 -120 57 -10 11 -2 9 26 -6 22 -11 55 -21 74 -21 l34 0
-26 20 c-33 26 -63 76 -72 118 -8 37 9 87 31 96 21 8 61 -20 90 -63 l25 -36
-5 29 c-5 28 -28 60 -71 100 -20 19 -20 19 5 12 14 -4 44 -27 66 -51z m2828
-323 c5 -8 -321 -48 -329 -40 -3 2 50 12 118 22 67 10 127 19 132 21 21 7 74
5 79 -3z m379 -19 c-7 -2 -21 -2 -30 0 -10 3 -4 5 12 5 17 0 24 -2 18 -5z
m-4623 -133 c-30 -4 -73 -15 -94 -25 -40 -17 -90 -14 -129 6 -39 21 -1 29 136
28 110 -1 130 -3 87 -9z m1920 -10 c0 -6 -26 -10 -57 -10 -41 0 -54 3 -43 10
20 13 100 13 100 0z m-2711 -112 c41 -50 97 -73 176 -72 46 0 81 6 103 18 18
9 38 14 44 10 6 -4 8 -3 5 3 -7 11 45 53 64 53 7 0 0 -13 -16 -30 -75 -78
-221 -99 -329 -46 -36 18 -65 40 -77 60 -34 56 -17 58 30 4z m2664 -25 c-40
-2 -106 -2 -145 0 -40 1 -8 3 72 3 80 0 112 -2 73 -3z m2080 -370 c-7 -2 -21
-2 -30 0 -10 3 -4 5 12 5 17 0 24 -2 18 -5z m-558 -63 c-3 -5 -12 -10 -18 -10
-7 0 -6 4 3 10 19 12 23 12 15 0z m-398 -56 c-3 -3 -12 -4 -19 -1 -8 3 -5 6 6
6 11 1 17 -2 13 -5z"/>
<path d="M8196 4995 c-9 -26 -7 -32 5 -12 6 10 9 21 6 23 -2 3 -7 -2 -11 -11z"/>
<path d="M7942 4384 c-16 -32 -27 -44 -37 -40 -8 3 -15 1 -15 -3 0 -5 6 -11
14 -14 9 -4 23 12 41 44 15 28 25 52 23 54 -2 3 -14 -16 -26 -41z"/>
<path d="M9793 4183 c9 -2 23 -2 30 0 6 3 -1 5 -18 5 -16 0 -22 -2 -12 -5z"/>
<path d="M8708 4073 c7 -3 16 -2 19 1 4 3 -2 6 -13 5 -11 0 -14 -3 -6 -6z"/>
<path d="M5998 3693 c7 -3 16 -2 19 1 4 3 -2 6 -13 5 -11 0 -14 -3 -6 -6z"/>
<path d="M4123 3923 c9 -2 23 -2 30 0 6 3 -1 5 -18 5 -16 0 -22 -2 -12 -5z"/>
<path d="M4043 3913 c9 -2 25 -2 35 0 9 3 1 5 -18 5 -19 0 -27 -2 -17 -5z"/>
<path d="M3878 3893 c6 -2 18 -2 25 0 6 3 1 5 -13 5 -14 0 -19 -2 -12 -5z"/>
<path d="M2669 3863 c-13 -16 -12 -17 4 -4 16 13 21 21 13 21 -2 0 -10 -8 -17
-17z"/>
<path d="M1620 3145 c0 -43 54 -188 77 -207 13 -10 77 -13 299 -13 155 0 285
3 289 6 10 11 -15 171 -33 209 l-17 35 -307 3 -308 2 0 -35z"/>
<path d="M1123 3009 c4 -19 11 -53 15 -76 11 -49 1 -63 -40 -63 -15 0 -28 -4
-28 -10 0 -6 26 -10 59 -10 91 0 691 -40 741 -49 l45 -9 -60 -2 c-71 -3 -54
-7 73 -18 l93 -8 -3 61 -3 60 -135 8 c-205 12 -196 9 -227 71 l-26 53 -58 7
c-32 3 -147 9 -255 12 l-197 7 6 -34z"/>
<path d="M2312 2995 c0 -16 2 -22 5 -12 2 9 2 23 0 30 -3 6 -5 -1 -5 -18z"/>
<path d="M3261 3094 c0 -11 3 -14 6 -6 3 7 2 16 -1 19 -3 4 -6 -2 -5 -13z"/>
<path d="M11164 3074 c-7 -3 -2 -29 15 -77 l26 -72 13 63 c8 34 11 69 8 77 -5
14 -38 19 -62 9z"/>
<path d="M11103 3045 l-21 -14 19 -92 c22 -105 24 -109 50 -109 15 0 19 7 19
31 0 25 -37 189 -44 196 -1 2 -12 -4 -23 -12z"/>
<path d="M11246 2949 c-6 -104 -1 -127 27 -116 17 6 31 104 25 172 -2 32 -7
41 -24 43 -20 3 -21 -3 -28 -99z"/>
<path d="M11017 2966 l-26 -33 46 -44 45 -44 -6 35 c-3 19 -8 54 -12 78 -4 23
-10 42 -14 42 -4 0 -19 -15 -33 -34z"/>
<path d="M11330 2965 c0 -22 -3 -58 -6 -80 l-6 -40 36 40 c19 22 35 42 36 45
0 3 -13 21 -30 40 l-29 35 -1 -40z"/>
<path d="M10957 2871 c-9 -16 -17 -35 -17 -43 0 -7 25 -38 55 -68 46 -45 58
-53 73 -44 9 6 18 23 20 38 3 21 -9 39 -55 87 l-58 60 -18 -30z"/>
<path d="M11367 2842 c-40 -53 -50 -109 -23 -131 12 -10 21 -1 50 52 39 70 42
84 23 110 -11 16 -16 13 -50 -31z"/>
<path d="M10911 2733 c-6 -31 -11 -60 -11 -66 0 -10 80 1 93 13 7 6 -57 110
-68 110 -1 0 -7 -26 -14 -57z"/>
<path d="M11412 2723 l-32 -48 23 -7 c51 -14 57 -11 57 35 0 69 -13 74 -48 20z"/>
<path d="M11121 2723 c-15 -53 -14 -59 9 -38 20 18 28 75 10 75 -5 0 -14 -17
-19 -37z"/>
<path d="M11228 2734 c-13 -28 -1 -59 22 -59 20 0 52 49 44 68 -10 27 -52 21
-66 -9z"/>
<path d="M11164 2682 c-29 -19 -48 -98 -35 -152 l8 -35 21 69 c12 37 22 74 22
82 0 17 12 18 28 2 7 -7 12 -8 12 -2 0 10 -32 44 -41 44 -2 0 -9 -4 -15 -8z"/>
<path d="M11222 2614 c-3 -28 -30 -116 -41 -133 -8 -13 -12 -13 -28 0 -16 13
-17 13 -4 -3 39 -50 84 7 78 100 -2 31 -4 48 -5 36z"/>
<path d="M10935 2611 c-40 -6 -40 -6 -40 -51 l0 -45 49 -3 c27 -2 60 -1 72 2
26 7 38 45 24 80 -10 28 -22 29 -105 17z"/>
<path d="M11364 2595 c-11 -43 10 -75 48 -75 49 0 60 11 56 56 -3 39 -3 39
-50 42 -44 3 -48 1 -54 -23z"/>
<path d="M11080 2515 c0 -32 2 -36 15 -25 8 7 15 18 15 25 0 7 -7 18 -15 25
-13 11 -15 7 -15 -25z"/>
<path d="M11267 2543 c-15 -14 -7 -63 12 -73 36 -19 69 38 39 68 -13 13 -41
16 -51 5z"/>
<path d="M10901 2436 c1 -22 4 -54 8 -69 6 -29 6 -28 48 32 23 34 39 61 35 61
-4 1 -26 5 -49 9 l-43 8 1 -41z"/>
<path d="M11402 2471 c-11 -7 -9 -18 11 -57 l25 -49 11 45 c7 25 14 51 16 58
5 14 -42 17 -63 3z"/>
<path d="M10994 2383 c-68 -83 -65 -77 -53 -112 6 -17 14 -31 18 -31 4 0 33
27 65 59 57 57 59 61 50 93 -14 48 -35 45 -80 -9z"/>
<path d="M11163 2414 c-7 -18 14 -61 33 -68 10 -4 14 3 14 20 0 49 -33 84 -47
48z"/>
<path d="M11336 2414 c-15 -38 -5 -80 26 -118 29 -36 32 -37 45 -20 20 27 16
61 -13 110 -27 46 -47 56 -58 28z"/>
<path d="M11240 2295 c-10 -12 -11 -40 -6 -107 3 -50 8 -93 10 -95 2 -3 14 1
26 7 20 11 22 17 16 57 -3 25 -6 70 -6 99 0 57 -14 70 -40 39z"/>
<path d="M11115 2288 c-3 -7 -16 -51 -29 -98 -25 -85 -23 -110 9 -110 18 0 78
168 70 197 -6 25 -42 32 -50 11z"/>
<path d="M11023 2241 c-24 -20 -43 -40 -43 -45 0 -12 51 -78 56 -74 5 5 35
150 32 153 -2 2 -22 -14 -45 -34z"/>
<path d="M11310 2217 c0 -37 4 -67 9 -67 12 0 51 49 51 64 0 7 -13 25 -30 41
l-30 29 0 -67z"/>
<path d="M11162 2138 c-12 -34 -20 -64 -17 -66 7 -7 64 -7 71 0 5 5 -20 115
-28 123 -2 2 -13 -24 -26 -57z"/>
<path d="M5991 2569 c-37 -7 -121 -51 -121 -63 0 -1 25 10 56 26 69 34 147 38
212 8 23 -10 42 -17 42 -14 0 8 -82 41 -115 46 -16 3 -50 1 -74 -3z"/>
<path d="M6003 2533 c20 -74 53 -173 57 -173 8 0 40 172 34 181 -3 5 -26 9
-51 9 -38 0 -45 -3 -40 -17z"/>
<path d="M5927 2512 c-15 -16 -14 -25 9 -117 26 -103 37 -125 60 -125 29 0 34
36 15 106 -11 38 -24 88 -31 112 -12 45 -27 52 -53 24z"/>
<path d="M6126 2522 c-3 -5 -8 -60 -12 -124 -6 -106 -5 -115 12 -122 30 -11
41 17 49 120 6 83 5 98 -11 115 -18 20 -30 24 -38 11z"/>
<path d="M5854 2448 c-45 -51 -47 -57 -34 -73 7 -9 34 -33 59 -54 l47 -39 -21
94 c-11 52 -23 94 -26 94 -3 0 -14 -10 -25 -22z"/>
<path d="M6208 2383 c-2 -49 -3 -89 -2 -91 1 -1 20 19 42 46 l41 49 -25 34
c-46 63 -52 59 -56 -38z"/>
<path d="M5767 2337 c-36 -56 -33 -69 33 -130 61 -57 86 -67 108 -45 28 28 13
62 -56 131 l-69 68 -16 -24z"/>
<path d="M6256 2285 c-47 -58 -55 -89 -36 -126 17 -30 28 -23 70 44 41 65 50
106 26 126 -11 10 -23 1 -60 -44z"/>
<path d="M5716 2210 c-4 -14 -10 -46 -15 -72 l-8 -48 46 1 c25 1 59 4 74 8
l28 6 -60 65 c-57 62 -59 64 -65 40z"/>
<path d="M6315 2162 c-22 -31 -41 -60 -43 -64 -2 -4 19 -8 47 -8 l51 0 0 53
c0 80 -10 83 -55 19z"/>
<path d="M5966 2168 c-9 -21 -16 -42 -16 -48 0 -18 19 -10 36 15 13 20 14 31
6 48 -10 21 -11 21 -26 -15z"/>
<path d="M6095 2176 c-22 -34 -16 -60 16 -64 31 -4 62 28 57 60 -5 34 -51 37
-73 4z"/>
<path d="M5994 2095 c-22 -33 -31 -89 -23 -140 l5 -40 16 35 c9 19 22 55 29
80 16 57 24 67 44 50 21 -18 19 3 -3 23 -26 24 -49 21 -68 -8z"/>
<path d="M6081 2034 c-1 -31 -30 -116 -46 -138 -13 -17 -17 -17 -31 -5 -15 12
-17 12 -12 -1 5 -17 47 -24 67 -11 21 13 40 103 31 142 -5 21 -8 26 -9 13z"/>
<path d="M6259 2023 c-7 -17 -7 -38 -2 -53 7 -22 15 -25 66 -28 l58 -3 -3 53
-3 53 -53 3 c-49 3 -53 1 -63 -25z"/>
<path d="M5690 1985 l0 -55 78 0 c87 0 102 8 102 55 0 47 -15 55 -102 55 l-78
0 0 -55z"/>
<path d="M5910 1930 c0 -30 3 -38 14 -34 21 8 26 42 9 59 -21 22 -23 19 -23
-25z"/>
<path d="M6141 1956 c-7 -8 -11 -27 -9 -43 2 -23 8 -29 35 -31 28 -3 33 0 39
24 4 15 2 34 -3 43 -14 22 -47 25 -62 7z"/>
<path d="M6313 1893 c-24 -2 -43 -6 -43 -9 0 -2 17 -29 37 -60 l37 -56 12 34
c22 65 27 98 12 96 -7 -1 -32 -3 -55 -5z"/>
<path d="M5694 1833 c12 -101 11 -101 81 -26 l63 68 -37 7 c-20 4 -53 7 -75 7
l-38 1 6 -57z"/>
<path d="M5855 1832 c-5 -4 -37 -35 -69 -69 l-59 -62 18 -41 c10 -22 21 -40
24 -40 4 0 37 30 74 68 70 70 78 92 51 130 -16 24 -23 26 -39 14z"/>
<path d="M6017 1833 c-14 -14 -6 -50 16 -71 30 -29 37 -28 37 6 0 43 -34 85
-53 65z"/>
<path d="M6220 1821 c-20 -39 -11 -77 31 -130 22 -28 45 -49 50 -46 4 3 14 23
20 44 10 35 9 41 -25 94 -38 60 -58 70 -76 38z"/>
<path d="M6107 1692 c-11 -12 -17 -36 -17 -69 0 -37 -4 -50 -15 -50 -8 0 -15
6 -15 14 0 20 -17 16 -22 -5 -3 -10 -13 -19 -22 -19 -13 0 -16 6 -11 21 23 71
13 116 -25 116 -16 0 -45 -51 -64 -116 -3 -11 -12 -21 -20 -21 -13 0 -12 11
10 106 4 20 -3 17 -58 -25 -35 -27 -66 -53 -69 -58 -4 -5 -14 4 -23 20 -8 16
-15 24 -16 18 0 -17 69 -126 102 -160 39 -41 113 -81 165 -90 112 -18 239 71
313 218 22 44 40 88 40 97 -1 13 -3 12 -12 -4 -14 -24 -49 -51 -62 -47 -5 2
-12 -2 -16 -8 -5 -8 -19 -1 -44 20 l-36 32 0 -53 c0 -39 -3 -50 -10 -39 -5 8
-11 11 -12 5 -1 -5 -4 17 -7 50 -7 66 -24 81 -54 47z"/>
<path d="M2783 1573 c9 -2 25 -2 35 0 9 3 1 5 -18 5 -19 0 -27 -2 -17 -5z"/>
<path d="M2120 1477 c0 -2 15 -16 33 -33 l32 -29 -29 33 c-28 30 -36 37 -36
29z"/>
<path d="M2504 1448 l-19 -23 23 19 c21 18 27 26 19 26 -2 0 -12 -10 -23 -22z"/>
<path d="M6953 5513 c54 -2 139 -2 190 0 51 1 7 3 -98 3 -104 0 -146 -2 -92
-3z"/>
<path d="M7508 5383 c12 -2 32 -2 45 0 12 2 2 4 -23 4 -25 0 -35 -2 -22 -4z"/>
<path d="M6030 5283 c-126 -7 -425 -35 -430 -40 -3 -3 27 -3 65 0 334 30 404
32 1085 32 393 0 672 3 620 6 -94 7 -1234 8 -1340 2z"/>
<path d="M5548 5233 c6 -2 18 -2 25 0 6 3 1 5 -13 5 -14 0 -19 -2 -12 -5z"/>
<path d="M440 2268 c0 -9 5 -39 12 -67 l11 -50 19 25 c80 100 330 -150 268
-267 -7 -12 -22 -19 -43 -20 -27 -1 -18 -8 68 -49 92 -44 251 -98 243 -82 -42
78 -127 268 -168 373 l-54 136 -178 9 c-163 8 -178 8 -178 -8z"/>
<path d="M495 2140 c-8 -24 22 -94 60 -138 15 -18 29 -31 31 -30 2 2 -4 24
-12 48 -8 24 -14 61 -12 83 1 25 -3 41 -12 47 -24 16 -48 11 -55 -10z"/>
<path d="M540 1976 c0 -2 8 -10 18 -17 15 -13 16 -12 3 4 -13 16 -21 21 -21
13z"/>
<path d="M8217 1793 c18 -2 50 -2 70 0 21 2 7 4 -32 4 -38 0 -55 -2 -38 -4z"/>
<path d="M7738 1173 c7 -3 16 -2 19 1 4 3 -2 6 -13 5 -11 0 -14 -3 -6 -6z"/>
<path d="M7643 1163 c9 -2 25 -2 35 0 9 3 1 5 -18 5 -19 0 -27 -2 -17 -5z"/>
<path d="M7573 1153 c9 -2 23 -2 30 0 6 3 -1 5 -18 5 -16 0 -22 -2 -12 -5z"/>
<path d="M7493 1143 c9 -2 23 -2 30 0 6 3 -1 5 -18 5 -16 0 -22 -2 -12 -5z"/>
<path d="M7403 1133 c9 -2 25 -2 35 0 9 3 1 5 -18 5 -19 0 -27 -2 -17 -5z"/>
<path d="M7333 1123 c9 -2 25 -2 35 0 9 3 1 5 -18 5 -19 0 -27 -2 -17 -5z"/>
<path d="M3767 903 c18 -2 50 -2 70 0 21 2 7 4 -32 4 -38 0 -55 -2 -38 -4z"/>
</g>
</svg>
